<?xml version="1.0" standalone="no"?>
<!DOCTYPE svg PUBLIC "-//W3C//DTD SVG 20010904//EN"
 "http://www.w3.org/TR/2001/REC-SVG-20010904/DTD/svg10.dtd">
<svg version="1.0" xmlns="http://www.w3.org/2000/svg"
 width="900.000000pt" height="900.000000pt" viewBox="0 0 900.000000 900.000000"
 preserveAspectRatio="xMidYMid meet">
<metadata>
Created by potrace 1.11, written by Peter Selinger 2001-2013
</metadata>
<g transform="translate(0.000000,900.000000) scale(0.100000,-0.100000)"
fill="#000000" stroke="none">
<path d="M4335 8706 c-256 -59 -465 -249 -551 -501 -39 -114 -45 -286 -15
-406 35 -143 91 -239 201 -350 83 -84 108 -102 190 -142 125 -60 201 -77 336
-77 136 0 212 18 334 77 81 39 108 59 191 142 83 83 102 109 142 191 62 130
81 221 75 368 -9 206 -71 345 -218 492 -99 98 -165 140 -287 183 -76 26 -105
31 -213 33 -81 3 -146 -1 -185 -10z"/>
<path d="M2490 6060 l0 -520 690 0 690 0 0 -2635 0 -2635 635 0 635 0 0 2635
0 2635 690 0 690 0 0 520 0 520 -2015 0 -2015 0 0 -520z"/>
</g>
</svg>
