<?xml version="1.0" encoding="UTF-8"?>
<svg viewBox="0 0 411.25 189.82" xmlns="http://www.w3.org/2000/svg">
<defs>
<style>.cls-1{fill:red;}</style>
</defs>
<title>Asset 1</title>
<g data-name="Layer 2">
<g data-name="Layer 1">
<path class="cls-1" d="M72,47.5l37.1,140.16H79.7L73.22,158H35.92l-6.48,29.64H0L37.1,47.5Zm-3.73,87.35-13.55-63h-.39l-13.55,63Z"/>
<path class="cls-1" d="M145.46,145.26a63,63,0,0,0,.69,9.72,21.93,21.93,0,0,0,2.55,7.65,13.62,13.62,0,0,0,5.1,5.1,18.94,18.94,0,0,0,16.39,0,13.91,13.91,0,0,0,5-5.1,22,22,0,0,0,2.55-7.65,63.73,63.73,0,0,0,.69-9.72V47.5h28.27v97.76q0,13.35-3.73,22.08a35.27,35.27,0,0,1-10,13.84,33.92,33.92,0,0,1-14.33,6.87A77.5,77.5,0,0,1,162,189.82a86.93,86.93,0,0,1-16.69-1.57,33.82,33.82,0,0,1-14.33-6.38,32.68,32.68,0,0,1-10-13.64q-3.73-8.83-3.73-23V47.5h28.27Z"/>
<path class="cls-1" d="M306.62,70.66H276v117H247.73v-117H217.11V47.5h89.51Z"/>
<path class="cls-1" d="M317.32,88.23q1.47-13.44,6.48-23.06a36.27,36.27,0,0,1,14.43-15q9.42-5.4,25.32-5.4t25.32,5.4a36.27,36.27,0,0,1,14.43,15q5,9.62,6.48,23.06a271.23,271.23,0,0,1,1.47,29.35A270.45,270.45,0,0,1,409.78,147a64.84,64.84,0,0,1-6.48,23,34.41,34.41,0,0,1-14.43,14.72q-9.42,5.1-25.32,5.1t-25.32-5.1A34.41,34.41,0,0,1,323.8,170a64.84,64.84,0,0,1-6.48-23,270.45,270.45,0,0,1-1.47-29.45A271.23,271.23,0,0,1,317.32,88.23Zm27.48,53.4a66.68,66.68,0,0,0,2.75,16.1q2.06,6.18,5.89,9t10.11,2.84q6.28,0,10.11-2.84t5.89-9a66.81,66.81,0,0,0,2.75-16.1q.68-9.91.69-24t-.69-23.95a68.09,68.09,0,0,0-2.75-16.1q-2.06-6.28-5.89-9.13t-10.11-2.85q-6.28,0-10.11,2.85t-5.89,9.13a68,68,0,0,0-2.75,16.1q-.69,9.82-.69,23.95T344.8,141.63Z"/>
<circle class="cls-1" cx="261.62" cy="16.58" r="16.58"/>
</g>
</g>
</svg>
