<?xml version="1.0" encoding="utf-8"?>
<!-- Generator: Adobe Illustrator 22.0.0, SVG Export Plug-In . SVG Version: 6.00 Build 0)  -->
<svg version="1.1" id="Layer_1" xmlns="http://www.w3.org/2000/svg" xmlns:xlink="http://www.w3.org/1999/xlink" x="0px" y="0px"
	 viewBox="0 0 3837.5 195.7" style="enable-background:new 0 0 3837.5 195.7;" xml:space="preserve">
<style type="text/css">
	.st0{fill:#D9F4FF;}
</style>
<g>
	<polyline class="st0" points="3855.5,89.1 3855.5,216.1 3855.5,203.1 1935.5,203.1 1935.5,126.1 1935.5,126.6 2169.9,29.4 
		2389.9,147.3 2569.1,101.5 2607.6,118.2 2917.3,7.9 3167.6,118.2 3261.6,78 3476,151.4 3698,38.8 	"/>
	<polyline class="st0" points="15.5,89.1 15.5,216.1 15.5,203.1 1935.5,203.1 1935.5,126.1 1935.5,126.6 1701.1,29.4 1481,147.3 
		1301.8,101.5 1263.4,118.2 953.6,7.9 703.3,118.2 609.3,78 394.9,151.4 172.9,38.8 	"/>
</g>
</svg>
