<?xml version="1.0" encoding="utf-8"?>
<!-- Generator: Adobe Illustrator 22.0.0, SVG Export Plug-In . SVG Version: 6.00 Build 0)  -->
<svg version="1.1" id="Layer_1" xmlns="http://www.w3.org/2000/svg" xmlns:xlink="http://www.w3.org/1999/xlink" x="0px" y="0px"
	 viewBox="0 0 1356.4 314.6" style="enable-background:new 0 0 1356.4 314.6;" xml:space="preserve">
<style type="text/css">
	.st0{fill:#C6C2AF;}
	.st1{fill:#4B823D;}
	.st2{fill:#3F6D32;}
	.st3{fill:#695020;}
	.st4{fill:#6FB259;}
	.st5{fill:#88C881;}
	.st6{fill:#6AA562;}
	.st7{fill:#6BA543;}
	.st8{fill:#83C451;}
	.st9{fill:#B4CB34;}
	.st10{fill:#AAB72C;}
	.st11{fill:#94C85B;}
	.st12{fill:#84AF4B;}
	.st13{fill:#666666;stroke:#666666;stroke-width:5;stroke-miterlimit:10;}
	.st14{fill:#4D4D4D;}
	.st15{fill:#39B54A;}
	.st16{fill:#666666;}
</style>
<g>
	<path class="st0" d="M1120.5,290.8c0,6.9-14.1,12.5-31.5,12.5c-17.4,0-31.5-5.6-31.5-12.5s14.1-12.5,31.5-12.5
		C1106.4,278.3,1120.5,283.9,1120.5,290.8z"/>
	<g>
		<g>
			<g>
				<ellipse class="st0" cx="825.6" cy="289.6" rx="37.4" ry="14.8"/>
				<g>
					<g>
						<g>
							<path class="st1" d="M826.4,208.6c0,0-20.3-5.5-28.9-34c-8.6-28.5-9.9-99.7,0-128.2c9.9-28.5,32.9-50.3,46.6-30.9
								c13.7,19.4,22.1,108.8,12.6,147C847.2,200.7,833.5,206.8,826.4,208.6z"/>
						</g>
						<path class="st2" d="M819.2,13.2c16.8,1.8,25.3,40.3,28.9,68.2c3.6,27.9,6.4,89.3-16.9,96.6c-23.1,7.2-34.8-8-35-8.3
							c0.4,1.7,0.8,3.4,1.3,4.9c8.6,28.5,28.9,34,28.9,34c7.1-1.8,20.8-7.9,30.3-46.1c9.5-38.2,1.2-127.6-12.6-147
							C837.2,5.8,827.9,6.5,819.2,13.2z"/>
					</g>
					<g>
						<path class="st3" d="M817.3,293.1c0,0,2.6-104,1.9-107.4c-0.7-3.5-10-19.5-10-19.5s11.9,14.5,13,8.5c1.1-6,3.3-51.4,3.3-51.4
							s0.7,45.9,3.7,45.4c3-0.5,15.2-18.5,15.2-18.5s-14.1,24-14.1,32.9s1.1,109.9,1.1,109.9H817.3z"/>
					</g>
				</g>
			</g>
			<g>
				<path class="st0" d="M754.7,291.8c0,6.9-25.8,12.5-57.7,12.5c-31.8,0-57.7-5.6-57.7-12.5c0-6.9,25.8-12.5,57.7-12.5
					C728.9,279.3,754.7,284.9,754.7,291.8z"/>
				<g>
					<path class="st1" d="M651.5,291.8c0,0-13.7-3.7-8.3-16.6c5.4-12.8,17-4.1,17-4.1s-11.6-9.5-2.5-17.8c9.1-8.3,11.6,9.9,11.6,9.9
						s-4.6-21.9,15.3-25.7c19.9-3.7,25.7,24.8,25.7,24.8s2.1-21.5,11.2-22.4c9.1-0.8,0,19.5,0,19.5s11.1-17.4,27.5-5
						c16.4,12.4-3.5,37.3-3.5,37.3H651.5z"/>
					<g>
						<path class="st4" d="M649.7,279.3c2.2-5.9,14.8-4.2,14.8-4.2s-6.6-14-3.9-15.7c2.7-1.7,10.7,8.7,10.7,8.7s-1.1-14.3,6.6-20.3
							c7.7-6,22-0.5,30,16.7c0,0,0.9-1.3,2.2-2.8c-1.1-4.4-7.5-27.5-25.5-24.1c-17.5,3.3-16.1,20.6-15.5,24.8
							c-0.6-3.6-3.6-16.2-11.4-9c-9.1,8.3,2.5,17.8,2.5,17.8s-11.6-8.7-17,4.1c-5.4,12.8,8.3,16.6,8.3,16.6S647.6,285.2,649.7,279.3
							z"/>
						<path class="st4" d="M749,254.5c-16.4-12.4-27.5,5-27.5,5s9.1-20.3,0-19.5c-7.9,0.7-10.5,17-11.1,21.3c2.1-2.4,4.9-5,6.5-3.6
							c2.7,2.3,1.7,9,1.7,9s11.3-12,20.3-7.3c9,4.7,6.6,32.4,6.6,32.4S765.4,266.9,749,254.5z"/>
					</g>
				</g>
			</g>
			<g>
				<path class="st0" d="M515.1,292.2c0,6.9-14.1,12.5-31.5,12.5c-17.4,0-31.5-5.6-31.5-12.5c0-6.9,14.1-12.5,31.5-12.5
					C501,279.7,515.1,285.3,515.1,292.2z"/>
				<g>
					<g>
						<path class="st5" d="M539.1,159.1c-4.9-17.3-20.9-25.4-35.5-25.4c-5.9-15.1-25.3-23.3-41.1-17.2c-18.3,7-23.3,27.5-18.6,41.9
							c0,0,0,0,0,0c-5.5,2.4-10.4,6.6-14,13c-8.2,14.4,2.4,33.5,18.4,37c14.6,3.2,26.6-6.5,31.1-17.4c6.7,7.3,16.2,12.1,28.3,12.5
							C529.3,204,544.9,179.8,539.1,159.1z"/>
						<path class="st6" d="M501.6,185.5c-13.6,1.3-21.5-5.8-21.5-5.8s-9.3,10.1-28,11.5c-17.3,1.3-24.2-9.7-25.1-11.3
							c-1.3,12.5,8.2,25.6,21.1,28.5c14.6,3.2,26.6-6.5,31.1-17.4c6.7,7.3,16.2,12.1,28.3,12.5c21.8,0.7,37.4-23.5,31.6-44.2
							c-4.9-17.3-20.9-25.4-35.5-25.4C529.8,152.7,515.3,184.2,501.6,185.5z"/>
					</g>
					<g>
						<path class="st3" d="M474.2,295.2c0,0,2.6-92.3,1.9-95.5c-0.8-3.2-10.2-17.7-10.2-17.7s12,13.2,13.2,7.7
							c1.1-5.5,3.4-46.8,3.4-46.8s0.8,41.8,3.8,41.4c3-0.5,15.4-16.8,15.4-16.8s-14.3,21.8-14.3,30c0,8.2,1.1,97.7,1.1,97.7H474.2z"
							/>
					</g>
				</g>
			</g>
			<g>
				<ellipse class="st0" cx="347.4" cy="289.4" rx="63" ry="12.5"/>
				<g>
					<path class="st7" d="M302.8,289.4c0,0-9.7-24.6-2.3-32.8c7.4-8.2,21.8-7.3,26.7,1.4c0,0,1.4-8.9,11.7-10.4
						c10.3-1.5,13.3,8.1,13.6,12c0,0,8.3-6.9,17.7-5.7c9.4,1.1,11.7,9.4,9.9,12.4c0,0,24.7,0.3,15.6,23.2H302.8z"/>
					<path class="st8" d="M307.4,262.8c8-5,18.7,2.3,18.7,2.3s4-9.2,12.8-8.8c8.8,0.4,12.8,9.1,12.8,9.1s10.6-6.3,18.6-1.3
						c8,5,7,10.3,7,10.3s19.5-1.6,18.3,15c9.1-22.9-15.6-23.2-15.6-23.2c1.8-3-0.5-11.2-9.9-12.4c-9.4-1.1-17.7,5.7-17.7,5.7
						c-0.2-3.9-3.2-13.5-13.6-12c-10.3,1.5-11.7,10.4-11.7,10.4c-4.8-8.7-19.3-9.6-26.7-1.4c-7.4,8.2,2.3,32.8,2.3,32.8
						S299.4,267.8,307.4,262.8z"/>
				</g>
			</g>
			<g>
				<ellipse class="st0" cx="73.6" cy="289.7" rx="31.5" ry="12.5"/>
				<g>
					<g>
						<g>
							<path class="st9" d="M65.6,228.6c0,0-11.2,8.1-18.7-2.8c0,0-12.5,3.1-15.3-8.4c0,0-14.9-1.2-14.3-12.7c0,0-18.1-8.7-6.2-25.2
								c0,0-11.5-10.2,1.6-21.7c0,0-10-14.9,7.5-19.3c0,0,1.6-17.7,19-13.7c0,0,4.7-14.9,21.5-9.3c0,0,15.1-11.2,23.7,3.7
								c0,0,16.5-2.2,19.6,11.5c0,0,15.9,2.2,14.3,18c0,0,12.2,11.2,4.4,24.5c0,0,7.8,22.2-9.1,24.2c0,0,0.5,9.8-9.4,14.2
								c0,0-1.8,11.9-12.4,10c0,0-8.1,9-14,4L65.6,228.6z"/>
						</g>
						<path class="st10" d="M118.2,148.8c1.6-15.8-14.3-18-14.3-18c7.9,34.2-11.4,77.8-41.4,81.7s-45.1-7.8-45.1-7.8
							c-0.6,11.5,14.3,12.7,14.3,12.7c2.8,11.5,15.3,8.4,15.3,8.4c7.5,10.9,18.7,2.8,18.7,2.8l12.1-2.8c5.9,5,14-4,14-4
							c10.6,1.9,12.4-10,12.4-10c10-4.3,9.4-14.2,9.4-14.2c16.8-2,9.1-24.2,9.1-24.2C130.4,160,118.2,148.8,118.2,148.8z"/>
					</g>
					<g>
						<path class="st3" d="M46.9,200c0,0,17.4,1.8,18.7,10.8c1.2,9-1.9,81.8-1.9,81.8h18.7c0,0-8.1-81.8-5.3-87.8
							c2.8-5.9,11.8-9.3,11.8-9.3s-10.3-0.3-13.7,2.8c-3.4,3.1-7.8,3.9-12.5,3.1C58.1,200.8,53.4,199.5,46.9,200z"/>
					</g>
				</g>
			</g>
			<g>
				<path class="st0" d="M238.9,289.7c0,6.9-14.1,12.5-31.5,12.5c-17.4,0-31.5-5.6-31.5-12.5s14.1-12.5,31.5-12.5
					C224.8,277.2,238.9,282.8,238.9,289.7z"/>
				<g>
					<g>
						<g>
							<path class="st11" d="M197.3,208.1c0,0-37-12.5-45.6-39.2c-8.7-26.7,0.6-64.7,34.6-77.8c34-13.1,77.3,9.5,79.6,46.3
								c2.3,36.8-20.8,61.7-51.1,70.7H197.3z"/>
						</g>
						<path class="st12" d="M265.9,137.4c-1.1-16.9-10.8-30.8-24.3-39.7c0,0,0,0,0,0c17.2,27.1,2.8,77.9-32.4,86.9
							c-34.7,8.9-53.4-7.4-54-7.9c12.4,21.3,42.1,31.3,42.1,31.3h17.5C245.1,199.2,268.2,174.3,265.9,137.4z"/>
					</g>
					<g>
						<path class="st3" d="M200.3,292.7c0,0,2.6-92.3,1.9-95.5c-0.8-3.2-10.1-17.7-10.1-17.7s12,13.2,13.2,7.7
							c1.1-5.5,3.4-46.8,3.4-46.8s0.8,41.8,3.8,41.4c3-0.5,15.4-16.8,15.4-16.8s-14.3,21.8-14.3,30c0,8.2,1.1,97.7,1.1,97.7H200.3z"
							/>
					</g>
				</g>
			</g>
			<g>
				<g>
					<path class="st5" d="M1144.5,157.8c-4.9-17.3-20.9-25.4-35.5-25.4c-5.9-15.1-25.3-23.3-41.1-17.2c-18.3,7-23.3,27.5-18.6,41.9
						c0,0,0,0,0,0c-5.5,2.4-10.4,6.6-14,13c-8.2,14.4,2.4,33.5,18.4,37c14.6,3.2,26.6-6.5,31.1-17.4c6.7,7.3,16.2,12.1,28.3,12.5
						C1134.7,202.7,1150.3,178.5,1144.5,157.8z"/>
					<path class="st6" d="M1107.1,184.1c-13.6,1.3-21.5-5.8-21.5-5.8s-9.3,10.1-28,11.5c-17.3,1.3-24.2-9.7-25.1-11.3
						c-1.3,12.5,8.2,25.6,21.1,28.5c14.6,3.2,26.6-6.5,31.1-17.4c6.7,7.3,16.2,12.1,28.3,12.5c21.8,0.7,37.4-23.5,31.6-44.2
						c-4.9-17.3-20.9-25.4-35.5-25.4C1135.3,151.3,1120.7,182.8,1107.1,184.1z"/>
				</g>
				<g>
					<path class="st3" d="M1079.6,293.8c0,0,2.6-92.3,1.9-95.5c-0.8-3.2-10.2-17.7-10.2-17.7s12,13.2,13.2,7.7
						c1.1-5.5,3.4-46.8,3.4-46.8s0.8,41.8,3.8,41.4c3-0.5,15.4-16.8,15.4-16.8s-14.3,21.8-14.3,30c0,8.2,1.1,97.7,1.1,97.7H1079.6z"
						/>
				</g>
			</g>
			<rect x="1296.7" y="178.6" class="st13" width="34" height="70"/>
			<circle class="st14" cx="1313.4" cy="212" r="7.4"/>
			<circle class="st14" cx="1313.3" cy="233.9" r="7.4"/>
			<circle class="st15" cx="1313.3" cy="191.5" r="7.4"/>
			<path class="st0" d="M1345.7,293.1c0,6.9-14.1,12.5-31.5,12.5c-17.4,0-31.5-5.6-31.5-12.5s14.1-12.5,31.5-12.5
				C1331.6,280.6,1345.7,286.2,1345.7,293.1z"/>
		</g>
		<rect x="1310.2" y="246.1" class="st16" width="6" height="50"/>
	</g>
</g>
</svg>
